:SAMPLES-PER-SECOND 30
:FULLY-SPECIFIED
:DEGREES
547
root  72.3397 36.724 -4.92146 -67.0303 87.045 -76.2633
RightUpLeg  -32.0601 -8.22771 -13.3087
RightLeg  23.1264 10.8561 4.83761
RightFoot  -5.72948 -0.888274 17.1102
RightToes  -1.81608e-008 0 -3.6325e-017
Spine  16.9952 -2.53681 -11.9729
Spine1  -11.0919 -4.07285 7.78474
HEad  -7.65197 -20.8021 -10.0786
LeftShoulder1  -0.241626 4.67059 -13.6903
LeftArm  0.14387 -42.4032 -48.7107
LeftForeArm  -12.6747 -48.5214 -13.5716
LeftHand  -0.13631 9.15054 -2.52869
RightShoulder  -0.0663593 -3.7454 18.4798
RightArm  -10.0064 30.7346 38.6143
RightForeArm  -24.3821 49.9871 15.0114
RightHand  -0.13424 3.15564 -2.06183
LeftUpLeg  -13.4075 18.3541 23.7718
LeftLeg  2.67765 -2.56601 0.320834
LeftFoot  6.34559 3.5173 -22.6026
LeftToes  1.81866e-011 -6.13092e-011 2.52013e-011
548
root  72.7618 36.5024 -4.33401 -108.125 87.2793 -118.232
RightUpLeg  -31.6071 -6.91562 -12.3019
RightLeg  17.0048 12.6095 4.12303
RightFoot  -4.26629 -1.06541 18.3506
RightToes  -1.81608e-008 0 -3.6325e-017
Spine  18.0922 -2.66041 -13.2397
Spine1  -11.6301 -4.63306 9.89941
HEad  -8.28576 -20.456 -9.60046
LeftShoulder1  -0.247803 4.72934 -13.1439
LeftArm  -0.324415 -45.5664 -48.9616
LeftForeArm  -14.1426 -46.0781 -12.551
LeftHand  -0.145094 9.31013 -2.64806
RightShoulder  0.00045922 -3.47638 17.7632
RightArm  -10.2614 34.9413 38.6519
RightForeArm  -27.0582 45.7383 13.1037
RightHand  -0.124906 3.5921 -1.85467
LeftUpLeg  -14.2034 18.792 23.9724
LeftLeg  1.5956 -4.56597 0.0637493
LeftFoot  6.58118 3.72496 -23.5644
LeftToes  1.81866e-011 -6.13092e-011 2.52013e-011
549
root  73.037 36.3844 -3.72256 -142.514 86.1456 -152.937
RightUpLeg  -33.4001 -4.22837 -12.336
RightLeg  19.6968 12.4111 4.57278
RightFoot  2.46464 -1.39381 11.2717
RightToes  -1.81608e-008 0 -3.6325e-017
Spine  19.9151 -2.15409 -13.9184
Spine1  -11.2567 -5.05071 12.4994
HEad  -9.50154 -20.869 -8.86069
LeftShoulder1  -0.235975 4.67337 -13.1082
LeftArm  -0.793612 -49.1484 -49.4253
LeftForeArm  -15.102 -43.6311 -11.597
LeftHand  -0.148026 9.4625 -2.60635
RightShoulder  0.09805 -3.06154 16.3772
RightArm  -12.178 38.3125 38.4665
RightForeArm  -27.5527 42.2425 11.7039
RightHand  -0.0503967 3.21204 -0.922434
LeftUpLeg  -13.212 18.582 23.8888
LeftLeg  -2.4736 -5.37098 0.508453
LeftFoot  8.40026 4.25503 -24.4321
LeftToes  1.81866e-011 -6.13092e-011 2.52013e-011
550
root  73.3441 35.9497 -2.98971 -173.192 85.3317 177.144
RightUpLeg  -36.2166 -3.35295 -14.3069
RightLeg  28.9165 9.36104 5.39218
RightFoot  -2.51634 -0.890459 11.2848
RightToes  -1.81608e-008 0 -3.6325e-017
Spine  22.0239 -1.91626 -14.3177
Spine1  -10.5086 -4.96204 10.8868
HEad  -11.4713 -21.0508 -8.3767
LeftShoulder1  -0.194271 4.46678 -13.0914
LeftArm  -1.49156 -52.8534 -49.9203
LeftForeArm  -15.905 -41.5643 -10.8625
LeftHand  -0.141211 9.44319 -2.42874
RightShoulder  0.237662 -2.35477 14.6904
RightArm  -14.3684 41.5191 37.1192
RightForeArm  -28.8181 38.9374 10.5772
RightHand  -0.0172431 3.82352 -0.484302
LeftUpLeg  -13.2914 17.3467 22.8946
LeftLeg  -1.57969 -5.92772 1.25984
LeftFoot  7.85601 4.33177 -25.5169
LeftToes  1.81866e-011 -6.13092e-011 2.52013e-011
551
root  73.6142 35.7045 -2.36942 -171.703 83.1085 178.729
RightUpLeg  -37.4005 -6.24149 -12.712
RightLeg  33.2012 9.72623 6.55822
RightFoot  -3.67874 -0.669691 9.5921
RightToes  -1.81608e-008 0 -3.6325e-017
Spine  23.6628 -2.38218 -11.8338
Spine1  -9.4268 -5.30958 9.96171
HEad  -14.1837 -20.4764 -8.06711
LeftShoulder1  -0.161998 4.33105 -12.4701
LeftArm  -2.24525 -56.4824 -50.3375
LeftForeArm  -17.4052 -38.9841 -10.0523
LeftHand  -0.161118 9.66813 -2.79003
RightShoulder  0.378771 -1.53289 12.2804
RightArm  -17.0483 44.5065 35.8622
RightForeArm  -29.6834 35.0478 9.36731
RightHand  0.0377596 4.54797 0.155486
LeftUpLeg  -13.8739 17.753 23.5868
LeftLeg  -1.92418 -8.39662 1.49643
LeftFoot  8.17127 4.47827 -25.9342
LeftToes  1.81866e-011 -6.13092e-011 2.52013e-011
552
root  73.8537 35.5561 -1.87063 -172.133 81.4523 177.727
RightUpLeg  -38.8171 -8.65143 -11.4607
RightLeg  36.3229 9.76591 7.38245
RightFoot  -4.71717 -0.460047 7.39572
RightToes  -1.81608e-008 0 -3.6325e-017
Spine  23.8938 -2.85842 -7.39668
Spine1  -7.47417 -5.08364 6.88719
HEad  -17.114 -22.2701 -5.79551
LeftShoulder1  -0.0768994 3.89464 -12.5
LeftArm  1.15361 -61.2342 -52.3927
LeftForeArm  -19.7317 -35.4744 -9.04515
LeftHand  -0.147702 9.52271 -2.52582
RightShoulder  0.181586 -2.58522 13.1061
RightArm  -19.3669 48.5205 31.6337
RightForeArm  -31.3182 30.9755 8.26252
RightHand  0.0565533 5.07898 0.319519
LeftUpLeg  -14.3179 17.6818 23.6402
LeftLeg  -3.60744 -8.95248 1.99052
LeftFoot  9.02971 4.66628 -25.889
LeftToes  1.81866e-011 -6.13092e-011 2.52013e-011
553
root  74.0779 35.3751 -1.35708 -175.106 81.9752 173.853
RightUpLeg  -41.2571 -8.59156 -10.9292
RightLeg  39.219 9.41989 7.8946
RightFoot  -5.59204 -0.339104 5.99467
RightToes  -1.81608e-008 0 -3.6325e-017
Spine  24.4537 -2.21617 -6.64603
Spine1  -7.18665 -4.30399 6.64197
HEad  -19.5693 -22.2588 -4.09414
LeftShoulder1  0.0340991 3.32781 -12.2015
LeftArm  0.991647 -63.6245 -52.0288
LeftForeArm  -20.2761 -32.8792 -8.32095
LeftHand  -0.200095 9.73719 -3.74073
RightShoulder  0.207844 -2.3891 11.8681
RightArm  -22.0159 51.4208 29.7076
RightForeArm  -31.0071 27.1691 7.2827
RightHand  0.112725 5.324 0.908307
LeftUpLeg  -14.656 17.5624 23.6595
LeftLeg  -3.71139 -7.43276 2.22826
LeftFoot  9.80125 4.68606 -25.0721
LeftToes  1.81866e-011 -6.13092e-011 2.52013e-011
554
root  74.3252 35.2039 -0.976718 -176.949 82.3005 171.615
RightUpLeg  -42.7613 -8.59089 -10.3986
RightLeg  41.4858 9.08005 8.237
RightFoot  -6.22736 -0.246164 4.55931
RightToes  -1.81608e-008 0 -3.6325e-017
Spine  25.1505 -2.43601 -4.99434
Spine1  -6.54538 -4.09437 5.26237
HEad  -22.1114 -21.4187 -3.09139
LeftShoulder1  0.0738016 3.11766 -11.9346
LeftArm  0.497007 -66.2289 -50.3661
LeftForeArm  -22.622 -30.0294 -7.65718
LeftHand  -0.171357 9.74722 -2.99769
RightShoulder  0.26739 -1.95852 10.2144
RightArm  -23.1936 54.7639 28.6364
RightForeArm  -31.7746 23.0626 6.2093
RightHand  0.153831 5.22243 1.36937
LeftUpLeg  -14.8225 17.9391 24.0802
LeftLeg  -3.09293 -7.03464 2.02698
LeftFoot  10.0551 4.71933 -24.955
LeftToes  1.81866e-011 -6.13092e-011 2.52013e-011
555
root  74.5118 35.0542 -0.713084 -179.655 82.0729 168.316
RightUpLeg  -44.1637 -8.78015 -10.2581
RightLeg  43.4059 8.57335 8.30579
RightFoot  -6.91638 -0.177399 3.37522
RightToes  -1.81608e-008 0 -3.6325e-017
Spine  25.6853 -2.86238 -3.73525
Spine1  -6.23835 -4.3628 5.076
HEad  -23.3811 -20.8824 -2.31949
LeftShoulder1  0.0954926 2.99933 -11.7226
LeftArm  0.107392 -68.7733 -47.9641
LeftForeArm  -26.0147 -27.1673 -7.06807
LeftHand  -0.177879 9.56686 -3.31792
RightShoulder  0.313108 -1.534 8.53702
RightArm  -22.2186 57.5384 28.2191
RightForeArm  -33.7764 19.67 4.97569
RightHand  0.145322 5.31494 1.25238
LeftUpLeg  -15.4649 18.1634 24.0254
LeftLeg  -2.56561 -6.47632 1.7038
LeftFoot  10.2229 4.86055 -25.476
LeftToes  1.81866e-011 -6.13092e-011 2.52013e-011
556
root  74.6597 34.9592 -0.505555 175.851 82.5036 164.029
RightUpLeg  -44.6591 -7.5866 -10.6466
RightLeg  44.8614 7.72078 7.85729
RightFoot  -7.43835 -0.133084 2.42779
RightToes  -1.81608e-008 0 -3.6325e-017
Spine  27.0765 -2.78276 -3.27232
Spine1  -6.2285 -4.26617 5.35532
HEad  -24.1696 -20.1581 -2.28311
LeftShoulder1  0.164408 2.62596 -11.5576
LeftArm  -4.13976 -69.3345 -45.7773
LeftForeArm  -24.6315 -25.9753 -6.7265
LeftHand  -0.175579 9.63512 -3.20203
RightShoulder  0.306806 -1.38815 6.94148
RightArm  -20.3837 60.3742 27.6737
RightForeArm  -38.0513 16.7124 4.10304
RightHand  0.182185 6.20525 1.48488
LeftUpLeg  -14.4253 18.2824 24.1959
LeftLeg  -3.08619 -5.61284 1.46425
LeftFoot  10.7051 5.07157 -25.9758
LeftToes  1.81866e-011 -6.13092e-011 2.52013e-011
557
root  74.8009 34.9021 -0.365954 174.88 82.3315 162.749
RightUpLeg  -45.2087 -7.12486 -10.7427
RightLeg  45.7349 7.08287 7.41908
RightFoot  -7.87587 -0.115565 2.05796
RightToes  -1.81608e-008 0 -3.6325e-017
Spine  27.6753 -3.16837 -2.38167
Spine1  -5.95107 -4.51343 5.56618
HEad  -25.3116 -19.1393 -1.81634
LeftShoulder1  0.200266 2.39957 -10.8574
LeftArm  -8.97778 -69.3305 -43.2267
LeftForeArm  -23.6605 -24.7007 -6.38644
LeftHand  -0.191503 9.28644 -3.97231
RightShoulder  0.293322 -1.41982 6.45707
RightArm  -22.9835 62.2297 26.7497
RightForeArm  -37.182 16.7584 3.91873
RightHand  0.152184 5.92732 1.2295
LeftUpLeg  -14.4092 18.2755 24.1956
LeftLeg  -3.46858 -5.13155 1.43748
LeftFoot  11.3099 5.2453 -26.1305
LeftToes  1.81866e-011 -6.13092e-011 2.52013e-011
558
root  74.9454 34.8653 -0.339694 173.53 82.0208 160.865
RightUpLeg  -45.6972 -7.23857 -11.0641
RightLeg  46.2367 6.87883 7.32508
RightFoot  -8.43115 -0.112639 2.18546
RightToes  -1.81608e-008 0 -3.6325e-017
Spine  27.777 -3.54352 -1.38011
Spine1  -5.65587 -4.7612 5.90572
HEad  -26.8896 -17.4842 -1.51702
LeftShoulder1  0.231893 2.21487 -10.7229
LeftArm  -11.6256 -69.7514 -41.0102
LeftForeArm  -23.8919 -23.6322 -6.15249
LeftHand  -0.230827 9.20625 -5.20364
RightShoulder  0.270748 -1.51924 6.00453
RightArm  -23.4415 64.9477 24.7072
RightForeArm  -38.8449 14.8229 3.53299
RightHand  0.122573 5.87575 0.929742
LeftUpLeg  -14.5739 18.0862 23.8226
LeftLeg  -4.05349 -4.03815 1.36447
LeftFoot  11.4837 5.40542 -26.6967
LeftToes  1.81866e-011 -6.13092e-011 2.52013e-011
559
root  75.065 34.8355 -0.313144 170.262 82.0115 157.292
RightUpLeg  -46.065 -7.05455 -11.5688
RightLeg  46.7372 6.67979 7.23515
RightFoot  -8.87167 -0.103178 2.01954
RightToes  -1.81608e-008 0 -3.6325e-017
Spine  28.4206 -3.44315 -1.10334
Spine1  -6.04504 -4.64631 6.65185
HEad  -27.4504 -17.1479 -0.943628
LeftShoulder1  0.285733 1.86949 -10.1678
LeftArm  -14.143 -69.6621 -40.9999
LeftForeArm  -23.1085 -22.5264 -5.8561
LeftHand  -0.252397 9.14986 -5.92442
RightShoulder  0.304147 -1.11711 4.93601
RightArm  -25.539 65.8948 23.6394
RightForeArm  -37.9841 13.256 2.87838
RightHand  0.13212 5.18536 1.14337
LeftUpLeg  -14.4614 17.8213 23.408
LeftLeg  -4.25373 -3.30095 1.3017
LeftFoot  11.6821 5.35275 -26.2261
LeftToes  1.81866e-011 -6.13092e-011 2.52013e-011
